<svg xmlns="http://www.w3.org/2000/svg" viewBox="0 0 1200 1200"><defs><style>.cls-1{fill:#020202;}.cls-2{fill:#dbdbdb;}.cls-3{fill:#7f7c7c;}.cls-4{fill:#3f3f3f;}.cls-5{fill:#ffdbba;}.cls-6{fill:#d12875;}</style></defs><g id="Layer_2" data-name="Layer 2"><rect class="cls-1" width="1200" height="1200"/></g><g id="Layer_1" data-name="Layer 1"><rect class="cls-2" x="375.21" y="600.33" width="462.64" height="260.11"/><path class="cls-3" d="M633.64,730.38a27.12,27.12,0,1,1-27.11-27.11A27.12,27.12,0,0,1,633.64,730.38Z"/><rect class="cls-4" x="375.21" y="860.44" width="462.64" height="20.13"/><path class="cls-5" d="M451.88,488.87S420.06,236.73,612,254.38C798.8,271.56,772.86,493.86,772.86,493.86S603.22,528.78,451.88,488.87Z"/><path class="cls-6" d="M445,600.33l-1.46-123.1s153,39.91,337.61,0l-4.54,123.1Z"/><path class="cls-4" d="M378.82,189.19s20.67,182.13,324.11,138.58L715,378.37s23.56-33.19,34.22-6.9c12.62,31.12-20.81,34-20.81,34l45.44,73.35s87.8-321.33-32.15-262.65c0,0-18.49-68.55-118.33-68.55C492.32,147.58,462.36,278,378.82,189.19Z"/><path class="cls-4" d="M552,428.9a223.9,223.9,0,0,1,58.64,0s3.63,46.18-31.15,46.18C550.6,475.08,552,428.9,552,428.9Z"/><path class="cls-4" d="M510.4,426.56c-15.4,0-25.8-8.17-27.84-21.85a25.82,25.82,0,0,1,21.74-29.35,22.25,22.25,0,0,1,3.15-.23,21.1,21.1,0,0,1,20.8,18,17.28,17.28,0,0,1-14.55,19.63,15.16,15.16,0,0,1-2.13.16,14.23,14.23,0,0,1-14-12.15,11.79,11.79,0,0,1,9.94-13.41,9.09,9.09,0,0,1,1.47-.11,9.86,9.86,0,0,1,9.73,8.41,8.31,8.31,0,0,1-7,9.44l-.31,0a2.08,2.08,0,0,1-.3-4.14,4.15,4.15,0,0,0,3.48-4.71,5.69,5.69,0,0,0-5.63-4.86,5.93,5.93,0,0,0-.84.06,7.65,7.65,0,0,0-6.43,8.69,10.06,10.06,0,0,0,9.94,8.59,10.81,10.81,0,0,0,1.5-.11,13.1,13.1,0,0,0,11-14.9,16.9,16.9,0,0,0-16.7-14.42,17.55,17.55,0,0,0-2.51.18,21.66,21.66,0,0,0-18.24,24.61c2.36,15.88,16.09,18.26,24.07,18.26a44.26,44.26,0,0,0,6.47-.48c8.4-1.25,14.94-4.84,18.93-10.38,4.13-5.72,5.58-13.64,4.21-22.88a23.14,23.14,0,0,0-12.78-17.72,29.64,29.64,0,0,0-13.41-3,46.7,46.7,0,0,0-21.76,6,2,2,0,0,1-1,.25,2.08,2.08,0,0,1-2-2.68,2.11,2.11,0,0,1,1-1.24,50.87,50.87,0,0,1,23.73-6.49,33.78,33.78,0,0,1,15.28,3.46,27.54,27.54,0,0,1,15,20.82c1.54,10.35-.17,19.31-5,25.94-4.66,6.47-12.16,10.64-21.69,12.06a50.87,50.87,0,0,1-7.44.57Z"/><path class="cls-4" d="M653.54,429.87a35.2,35.2,0,0,1-26-11c-7.38-7.86-10.24-18.28-7.66-27.87,2.7-10.1,7.84-17.65,14.86-21.82a28,28,0,0,1,14.56-3.82,39.12,39.12,0,0,1,10.15,1.41c18.92,5.08,28.06,17.94,23.87,33.57a25.8,25.8,0,0,1-31.64,18.25,21.1,21.1,0,0,1-14.89-25.82A17.31,17.31,0,0,1,653.5,380a17.5,17.5,0,0,1,4.48.59A14.27,14.27,0,0,1,668,398a11.79,11.79,0,0,1-14.47,8.34,9.88,9.88,0,0,1-7-12.08,8.34,8.34,0,0,1,8-6.15,8.17,8.17,0,0,1,2.14.28,2.09,2.09,0,0,1-.54,4.1,2,2,0,0,1-.54-.08,4.32,4.32,0,0,0-1.08-.14,4.14,4.14,0,0,0-4,3.07,5.7,5.7,0,0,0,4,7,7.8,7.8,0,0,0,2,.26,7.65,7.65,0,0,0,7.38-5.66,10.07,10.07,0,0,0-7.11-12.34,13.11,13.11,0,0,0-16.07,9.26,16.94,16.94,0,0,0,12,20.72,21.66,21.66,0,0,0,26.53-15.3c5.31-19.79-14.68-26.8-20.93-28.48a35,35,0,0,0-9-1.27,24,24,0,0,0-12.45,3.24c-6.07,3.61-10.55,10.29-13,19.32-2.2,8.19.29,17.14,6.67,23.94a31.11,31.11,0,0,0,23,9.68,35.92,35.92,0,0,0,7-.7,1.92,1.92,0,0,1,.41-.05,2.09,2.09,0,0,1,.41,4.13,39.8,39.8,0,0,1-7.81.79Z"/></g></svg>