<svg id="Layer_1" data-name="Layer 1" xmlns="http://www.w3.org/2000/svg" viewBox="0 0 1200 1200"><defs><style>.cls-1{fill:#e5e5e5;}.cls-2{fill:#134e4a;}.cls-3{fill:#3d3d3d;}.cls-4{fill:#171717;}.cls-5{fill:#115e59;}.cls-6{fill:#fbb03b;}.cls-7{fill:#ffdbba;}.cls-8{fill:#0d9488;}.cls-9{fill:#473522;}</style></defs><rect class="cls-1" x="375.21" y="600.33" width="462.64" height="260.11"/><path class="cls-2" d="M633.64,730.38a27.12,27.12,0,1,1-27.11-27.11A27.12,27.12,0,0,1,633.64,730.38Z"/><rect class="cls-3" x="375.21" y="860.44" width="462.64" height="20.13"/><polygon class="cls-1" points="205.94 1052.42 390.24 967.59 311.34 829.71 169.44 876.15 205.94 1052.42"/><polygon class="cls-4" points="375.21 912.05 243.9 972.84 245.13 975.47 373.9 915.86 375.21 912.05"/><polygon class="cls-4" points="368.54 904.28 239.76 963.9 240.99 966.53 372.29 905.75 368.54 904.28"/><rect class="cls-5" x="235.75" y="935.82" width="144.69" height="6.95" transform="translate(-366.1 216.34) rotate(-24.84)"/><polygon class="cls-6" points="245.13 975.47 246.22 971.77 242.44 969.69 243.3 965.46 239.76 963.9 230.54 972.51 232.59 976.94 245.13 975.47"/><polygon class="cls-2" points="232.59 976.94 230.54 972.51 224.81 977.85 232.59 976.94"/><path class="cls-3" d="M786.21,1034.47c-7.18,0-14.92-1.48-23.66-4.43-12.32-4.16-25.82-2.15-38.86-.23-7.44,1.1-15.12,2.24-22.56,2.24h0c-15.71,0-34.17-5.77-38.92-22-4.42-15.09,6.12-30.45,18.42-36,7.42-3.37,17.18-4.27,25.8-5.06,2.4-.22,4.73-.43,6.89-.69l1.74-.21c15.55-1.83,30.24-3.56,38-17.6,7.1-12.77,8.41-29,8.26-40.42-.11-8.59-.26-20.37-1.86-31.9l5-.7c1.64,11.85,1.8,23.81,1.91,32.54.15,12-1.27,29.2-8.9,42.94-9.06,16.31-25.74,18.28-41.88,20.18l-1.72.2c-2.21.27-4.58.48-7,.71-8.22.75-17.53,1.6-24.17,4.62-10.41,4.73-19.19,17.91-15.64,30,4,13.53,20.18,18.34,34.05,18.34h0c7.06,0,14.23-1.06,21.82-2.18,13.63-2,27.74-4.1,41.22.44,18.23,6.15,31.62,5.47,44.78-2.28,14-8.24,24.33-21.34,34.31-34,1.53-2,3-3.81,4.4-5.67,4.91-6.39,10-13,15.88-18.82,3.79-3.73,7.94-7.1,12-10.36a146.6,146.6,0,0,0,12.53-11l3.62,3.55a151.62,151.62,0,0,1-13,11.38c-3.91,3.18-8,6.47-11.58,10-5.65,5.57-10.62,12-15.43,18.29-1.44,1.88-2.89,3.76-4.35,5.62-10.34,13.14-21,26.62-35.8,35.35a48.41,48.41,0,0,1-25.31,7.14Z"/><path class="cls-1" d="M963.81,928.64c-22.59,27.74-56.87,37.23-76.57,21.19s-17.34-51.53,5.25-79.27,56.87-37.24,76.56-21.2S986.4,900.89,963.81,928.64Z"/><path class="cls-7" d="M451.88,488.87S420.06,236.73,612,254.38C798.8,271.56,772.86,493.86,772.86,493.86S603.22,528.78,451.88,488.87Z"/><path class="cls-8" d="M445,600.33l-1.46-123.1s153,39.91,337.61,0l-4.54,123.1Z"/><path class="cls-9" d="M378.82,189.19s20.67,182.13,324.11,138.58L715,378.37s23.56-33.19,34.22-6.9c12.62,31.12-20.81,34-20.81,34l45.44,73.35s87.8-321.33-32.15-262.65c0,0-18.49-68.55-118.33-68.55C492.32,147.58,462.36,278,378.82,189.19Z"/><path class="cls-4" d="M552,428.9a223.9,223.9,0,0,1,58.64,0s3.63,46.18-31.15,46.18C550.6,475.08,552,428.9,552,428.9Z"/><path class="cls-8" d="M246.79,712.62C246.79,602,372.32,574,445.54,574.21l-.78-42.34c-138.79-1.58-256,71-256.4,182.13-.3,77.9,22.39,133.44,41.69,166.54l60.91-49C271.15,800.73,246.79,754.38,246.79,712.62Z"/><path class="cls-7" d="M291,831.51l-60.91,49c14.2,24.36,26.56,36.56,26.56,36.56,3.26,4,13.34,15.22,21.55,9.33,3.94-2.82,3.7-7.61,2.23-12.09,4.06,2.72,8.76,4.22,13,1.19,3.56-2.55,3.67-6.71,2.61-10.8,3.76,2.24,8,3.22,11.83.48s3.67-7.62,2.22-12.08c4,2.71,8.75,4.22,13,1.19,8.81-6.31-4.72-25.08-7.07-28A392.24,392.24,0,0,1,291,831.51Z"/><path class="cls-7" d="M926.57,833.65A391.25,391.25,0,0,1,903,866.36c-2.35,2.88-15.88,21.65-7.07,28,4.23,3,8.94,1.52,13-1.19-1.45,4.46-1.71,9.27,2.22,12.08s8.07,1.76,11.83-.48c-1.06,4.09-.95,8.25,2.61,10.8,4.24,3,8.93,1.53,13-1.19-1.47,4.48-1.71,9.27,2.23,12.09,8.21,5.89,18.29-5.31,21.55-9.33,0,0,14.94-14.75,30.84-44.18Z"/><path class="cls-8" d="M1030.56,714c-.43-111.12-117.61-183.71-256.4-182.13l-.77,42.34C846.61,574,972.13,602,972.13,712.62c0,42.75-25.52,90.29-45.56,121l66.58,39.27C1011.36,839.2,1030.84,786.2,1030.56,714Z"/><path class="cls-4" d="M510.4,426.56c-15.4,0-25.8-8.17-27.84-21.85a25.82,25.82,0,0,1,21.74-29.35,22.25,22.25,0,0,1,3.15-.23,21.1,21.1,0,0,1,20.8,18,17.28,17.28,0,0,1-14.55,19.63,15.16,15.16,0,0,1-2.13.16,14.23,14.23,0,0,1-14-12.15,11.79,11.79,0,0,1,9.94-13.41,9.09,9.09,0,0,1,1.47-.11,9.86,9.86,0,0,1,9.73,8.41,8.31,8.31,0,0,1-7,9.44l-.31,0a2.08,2.08,0,0,1-.3-4.14,4.15,4.15,0,0,0,3.48-4.71,5.69,5.69,0,0,0-5.63-4.86,5.93,5.93,0,0,0-.84.06,7.65,7.65,0,0,0-6.43,8.69,10.06,10.06,0,0,0,9.94,8.59,10.81,10.81,0,0,0,1.5-.11,13.1,13.1,0,0,0,11-14.9,16.9,16.9,0,0,0-16.7-14.42,17.55,17.55,0,0,0-2.51.18,21.66,21.66,0,0,0-18.24,24.61c2.36,15.88,16.09,18.26,24.07,18.26a44.26,44.26,0,0,0,6.47-.48c8.4-1.25,14.94-4.84,18.93-10.38,4.13-5.72,5.58-13.64,4.21-22.88a23.14,23.14,0,0,0-12.78-17.72,29.64,29.64,0,0,0-13.41-3,46.7,46.7,0,0,0-21.76,6,2,2,0,0,1-1,.25,2.08,2.08,0,0,1-2-2.68,2.11,2.11,0,0,1,1-1.24,50.87,50.87,0,0,1,23.73-6.49,33.78,33.78,0,0,1,15.28,3.46,27.54,27.54,0,0,1,15,20.82c1.54,10.35-.17,19.31-5,25.94-4.66,6.47-12.16,10.64-21.69,12.06a50.87,50.87,0,0,1-7.44.57Z"/><path class="cls-4" d="M653.54,429.87a35.2,35.2,0,0,1-26-11c-7.38-7.86-10.24-18.28-7.66-27.87,2.7-10.1,7.84-17.65,14.86-21.82a28,28,0,0,1,14.56-3.82,39.12,39.12,0,0,1,10.15,1.41c18.92,5.08,28.06,17.94,23.87,33.57a25.8,25.8,0,0,1-31.64,18.25,21.1,21.1,0,0,1-14.89-25.82A17.31,17.31,0,0,1,653.5,380a17.5,17.5,0,0,1,4.48.59A14.27,14.27,0,0,1,668,398a11.79,11.79,0,0,1-14.47,8.34,9.88,9.88,0,0,1-7-12.08,8.34,8.34,0,0,1,8-6.15,8.17,8.17,0,0,1,2.14.28,2.09,2.09,0,0,1-.54,4.1,2,2,0,0,1-.54-.08,4.32,4.32,0,0,0-1.08-.14,4.14,4.14,0,0,0-4,3.07,5.7,5.7,0,0,0,4,7,7.8,7.8,0,0,0,2,.26,7.65,7.65,0,0,0,7.38-5.66,10.07,10.07,0,0,0-7.11-12.34,13.11,13.11,0,0,0-16.07,9.26,16.94,16.94,0,0,0,12,20.72,21.66,21.66,0,0,0,26.53-15.3c5.31-19.79-14.68-26.8-20.93-28.48a35,35,0,0,0-9-1.27,24,24,0,0,0-12.45,3.24c-6.07,3.61-10.55,10.29-13,19.32-2.2,8.19.29,17.14,6.67,23.94a31.11,31.11,0,0,0,23,9.68,35.92,35.92,0,0,0,7-.7,1.92,1.92,0,0,1,.41-.05,2.09,2.09,0,0,1,.41,4.13,39.8,39.8,0,0,1-7.81.79Z"/></svg>