<svg id="Layer_1" data-name="Layer 1" xmlns="http://www.w3.org/2000/svg" viewBox="0 0 1302.52 1306"><defs><style>.cls-1{fill:#e5e5e5;}.cls-2{fill:#0d9488;}</style></defs><path class="cls-1" d="M1301.6,713.47l-198.9,170.1,83.51,39c-19,39.27-173.08,332.2-534.49,333.28C264.34,1257,79.94,903.41,55.66,721.86H310.91a7.42,7.42,0,0,0-.7,3.2V860.65C310.21,901.18,334,934,363.4,934H935c34.27,0,62.06-38.33,62.06-85.62V679.06c0-11.6-6.82-21-15.23-21H956.42c-9.47,0-17.15,10.6-17.15,23.67V842.57c0,12.93-7.59,23.4-17,23.4H377c-10.8,0-19.56-12.08-19.56-27V725.06a7.42,7.42,0,0,0-.7-3.2h.7V673.29H21.5s-29,.73-19.65,48.57c0,0,69.38,572.11,649.87,583.67,0,0,388.12,28.61,582.23-360.73l67.65,31.55Z"/><path class="cls-2" d="M1300.67,570.56S1231.29,12,650.8.47c0,0-388.12-28.61-582.23,360.73L.92,329.65V592.53l198.9-170.1-83.51-39c19-39.27,173.08-332.2,534.49-333.28,387.38-1.15,574.71,338.82,599,520.37H992.31v-98.3a53.2,53.2,0,0,0-53.19-53.19H777.43v-35a55.81,55.81,0,0,0-55.8-55.8H579.4a50.6,50.6,0,0,0-50.59,50.59v40.19H367.49a62.07,62.07,0,0,0-62.06,62.06V603.9a15.22,15.22,0,0,0,15.23,15.22H346.1A17.15,17.15,0,0,0,363.25,602V485.37a17,17,0,0,1,17-17H925.53A19.56,19.56,0,0,1,945.09,488V619.12H1281S1310,618.39,1300.67,570.56Zm-723.31-194H728.27v42.5H577.36Z"/><path class="cls-2" d="M900.38,570.56h-498a10.6,10.6,0,0,0-10.6,10.6v23.51a14.45,14.45,0,0,0,14.46,14.45H593v20.43A15.42,15.42,0,0,0,608.4,655h87.11a17,17,0,0,0,17-17V619.12H900.38A15.61,15.61,0,0,0,916,603.51V586.17A15.61,15.61,0,0,0,900.38,570.56Z"/></svg>